<svg width="122" height="119" viewBox="0 0 122 119" fill="none" xmlns="http://www.w3.org/2000/svg">
<path d="M38.6275 1.75355H27.9797C13.3616 1.75355 1.52791 13.218 1.50213 27.4109V37.799C1.55369 81.6543 38.1634 117.174 83.3327 117.224H93.9804C108.599 117.224 120.458 105.71 120.458 91.5167V81.1787C120.407 37.3234 83.8225 1.80361 38.6533 1.72852M113.317 85.9096C106.098 72.4426 93.1554 56.5476 78.5889 42.4048C76.0623 39.9517 73.4841 37.5487 70.8802 35.2207L66.2137 40.4774C68.6372 42.6301 71.0865 44.9079 73.5615 47.336C95.7851 68.9132 108.238 88.6381 111.409 99.727C109.501 103.557 106.304 106.636 102.359 108.488C95.4758 106.636 85.3178 101.479 73.4583 92.9435L69.1013 98.4504C75.1342 102.906 81.5022 106.886 88.1796 110.365H83.3327C42.108 110.315 8.69516 77.8995 8.6436 37.8741V33.1681C15.8624 46.6351 28.8047 62.5301 43.3713 76.673C46.9292 80.1273 50.5901 83.4816 54.3027 86.6856L58.6598 81.1787C55.3082 78.275 51.8792 75.121 48.4245 71.7668C26.2008 50.1896 13.7483 30.4647 10.5772 19.3758C12.485 15.5459 15.682 12.442 19.6266 10.5897C27.129 12.6172 38.4728 18.5247 51.6472 28.4622L56.3394 23.2056C49.3011 17.7237 41.7471 12.8676 33.8064 8.71232H38.6533C79.8779 8.76238 113.291 41.2033 113.317 81.2287V85.9347V85.9096Z" fill="white"/>
<path d="M93.9816 118.498H83.3338C37.5459 118.448 0.265796 82.2527 0.214233 37.7967V27.4336C0.214233 12.5398 12.6667 0.474609 27.9552 0.474609H38.6287C84.4167 0.524672 121.697 36.7453 121.748 81.1763V91.5144C121.748 106.383 109.296 118.473 93.9816 118.473M27.9552 3.02783C14.1105 3.02783 2.81817 13.9666 2.79239 27.4336V37.8217C2.84395 80.876 38.9639 115.945 83.3081 115.995H93.9559C107.826 115.995 119.119 105.031 119.144 91.5644V81.2264C119.093 38.1721 82.9729 3.10292 38.6287 3.05286H27.9552V3.02783ZM93.3629 111.565H83.3081C41.4647 111.515 7.3815 78.4229 7.32994 37.7967V27.9092L9.77917 32.49C16.6371 45.3312 29.2185 61.076 44.2749 75.6694C47.4718 78.7733 50.7718 81.8021 54.1234 84.7308L56.882 81.2264C53.814 78.523 50.6429 75.6193 47.4976 72.5404C32.7763 58.2474 13.9558 35.8192 9.28932 19.5987L9.16044 19.1481L9.36666 18.7226C11.4034 14.6675 14.8324 11.3383 19.009 9.36081L19.4472 9.16056L19.9113 9.28572C28.0583 11.4635 39.4795 17.7964 51.4164 26.6576L54.407 23.3034C47.7553 18.222 40.5881 13.6662 33.1372 9.76132L28.5997 7.38332H38.6029C80.4463 7.43338 114.53 40.5251 114.581 81.1513V91.0388L112.132 86.458C105.274 73.6418 92.6926 57.872 77.6362 43.2535C75.4963 41.1759 73.2533 39.0733 70.9587 36.9956L67.9939 40.3248C70.1079 42.2523 72.2736 44.2798 74.4392 46.3825C89.1605 60.6755 108.007 83.1288 112.622 99.3242L112.751 99.7748L112.544 100.2C110.508 104.255 107.079 107.585 102.902 109.562L102.464 109.762L102 109.637C94.5488 107.635 84.5456 102.303 73.7174 94.6183L70.9329 98.1477C76.5791 102.253 82.5862 105.958 88.7996 109.187L93.3887 111.565H93.3629ZM9.93386 37.9969C10.0885 77.0962 42.8827 108.911 83.1534 109.036C77.9971 106.133 73.0212 102.904 68.3032 99.3993L67.272 98.6233L73.2017 91.1389L74.233 91.8898C84.8034 99.5245 94.9613 105.031 102.232 107.109C105.558 105.432 108.29 102.779 110.018 99.5745C106.976 89.612 95.477 70.3877 72.6345 48.2098C70.1853 45.8318 67.7103 43.5289 65.3384 41.4012L64.4102 40.5752L70.7783 33.4161L71.758 34.2922C74.4135 36.6702 77.0174 39.0983 79.4924 41.5013C93.0793 54.718 104.681 68.8358 112.003 81.0011C111.848 41.9018 79.0541 10.0617 38.7576 9.93654C45.1772 13.5661 51.339 17.6713 57.114 22.177L58.1711 23.003L51.8031 30.162L50.8233 29.4361C39.0412 20.5499 27.7489 14.1919 19.7308 11.914C16.405 13.5911 13.6722 16.2445 11.9448 19.4736C14.987 29.4611 26.5114 48.6854 49.328 70.8383C52.757 74.1675 56.1859 77.3215 59.5117 80.2001L60.4141 80.9761L54.4843 88.4855L53.4273 87.5844C49.689 84.3553 45.9764 80.9761 42.4186 77.5217C28.8317 64.3301 17.23 50.1873 9.90809 38.0219" fill="white"/>
</svg>
