<svg width="130" height="119" viewBox="0 0 130 119" fill="none" xmlns="http://www.w3.org/2000/svg">
<path d="M39.2452 13.0931C55.1782 13.0931 61.34 23.5563 65.0525 31.3912C68.8424 23.6314 73.9471 14.1695 89.5191 13.0931C89.6223 13.0931 89.7254 13.0931 89.8285 13.0931C98.6458 13.0931 104.885 16.5725 108.958 20.5775C115.43 26.9355 117.441 36.5226 115.687 47.6867C114.037 58.225 108.984 64.583 103.183 70.6657C90.3957 83.582 75.0299 92.9187 65.2588 101.63C55.4102 93.7197 50.4859 91.2166 42.7257 84.6833C35.4037 78.5005 27.0763 72.0674 21.3528 64.3077C15.8098 56.7982 11.298 43.5815 14.8043 31.5914C17.6919 21.754 25.6068 13.9191 38.8585 13.0931H39.2194M39.2452 0.00159405C39.0647 0.00159405 38.91 0.00159405 38.7296 0.00159405H38.3686L38.0077 0.0266256C28.8552 0.602351 20.6309 3.68123 14.2113 8.98792C8.33315 13.819 4.05342 20.4023 1.83621 28.0119C-0.380998 35.6215 -0.484126 44.1072 1.55261 52.5929C3.25419 59.6268 6.37377 66.4854 10.3957 71.9173C16.2481 79.8523 23.9825 86.2854 30.7889 91.9675C31.8717 92.8687 32.8772 93.6947 33.8826 94.5458C38.3429 98.3005 41.8749 100.804 45.6132 103.482C48.8617 105.785 52.2133 108.163 56.6735 111.717L65.7486 118.977L74.4112 111.242C77.8143 108.188 82.3519 104.809 87.1473 101.204C95.2684 95.1215 104.472 88.2378 112.929 79.7021L113.032 79.6019L113.135 79.5018C116.203 76.2727 119.735 72.3178 122.674 67.3865C125.948 61.9297 128.037 56.1223 129.042 49.6392C130.202 42.33 130.048 35.4963 128.578 29.3386C126.877 22.2546 123.525 16.197 118.575 11.3409C115.12 7.96163 111.124 5.28325 106.69 3.35582C101.508 1.10298 95.8356 -0.0234375 89.8543 -0.0234375C89.6996 -0.0234375 89.5449 -0.0234375 89.416 -0.0234375H89.0035L88.591 0.00159405C79.2839 0.652414 71.3948 3.6562 65.0783 8.93786C61.9072 6.25948 58.3493 4.1318 54.4563 2.65494C49.8414 0.877698 44.7109 -0.0234375 39.271 -0.0234375" fill="white"/>
</svg>
