<svg width="122" height="119" viewBox="0 0 122 119" fill="none" xmlns="http://www.w3.org/2000/svg">
<path d="M60.8444 0.429688C27.3026 0.429688 0 26.9381 0 59.5042C0 92.0702 27.3026 118.579 60.8444 118.579C94.3862 118.579 121.689 92.0702 121.689 59.5042C121.689 26.9381 94.3862 0.429688 60.8444 0.429688ZM67.264 56.9259V13.346C91.0346 16.4499 108.798 36.0496 108.798 59.5042C108.798 69.667 105.318 79.6295 98.9753 87.6897L67.264 56.9009V56.9259ZM67.264 105.637V74.5732L89.8744 96.5258C83.2485 101.432 75.4883 104.561 67.264 105.637ZM54.399 74.5982V105.662C46.1747 104.586 38.4145 101.457 31.8144 96.5509L54.399 74.5982ZM54.399 13.346V56.9009L22.6877 87.6897C16.3455 79.6045 12.865 69.667 12.865 59.5042C12.865 36.0496 30.6284 16.4499 54.399 13.346Z" fill="white"/>
</svg>
